<svg width="352" height="284" viewBox="0 0 352 284" fill="none" xmlns="http://www.w3.org/2000/svg">
<path d="M299.173 222.734C275.821 222.734 44.5277 215.615 41.5012 215.494C37.754 215.343 40.0684 211.847 36.2741 210.384C26.3769 206.569 -28.906 134.863 19.7776 102.406C51.5164 81.245 16.226 63.986 41.5012 38.5203C62.463 17.4003 73.92 33.8269 100.907 8.01358C125.44 -15.453 179.344 20.3855 218.24 17.4003C233.493 16.2296 265.914 -0.85921 286.88 20.9203C299.536 34.0672 305.517 47.8661 290.385 79.0661C280.838 98.762 331.452 106.576 345.673 129.05C370.103 167.661 317.157 220.618 299.173 222.734Z" fill="#D4EFFE"/>
<path d="M124.937 204.803C53.3876 204.803 42.5275 201.316 30.1277 216.639C24.1596 224.014 22.8585 234.849 48.0735 242.36C73.2884 249.872 146.686 249.872 146.686 249.872C167.36 260.321 152.818 292.437 220.74 281.511C302.291 263.529 355.96 228.46 336.138 208.217C314.397 193.002 227.886 204.803 124.937 204.803Z" fill="#9ACEEE"/>
<path d="M243.252 248.24L266.347 247.374L248.497 211L161.539 217.245L64.3924 215.626C64.3924 215.626 62.112 216.32 61.1998 219.558C60.2877 222.797 63.0242 224.185 63.0242 224.185H154.88L168.96 267.32L243.252 248.24Z" fill="#1750BE" fill-opacity="0.15" style="mix-blend-mode:multiply"/>
<g filter="url(#filter0_dd_292_2468)">
<rect x="63.7227" y="29.1641" width="133.817" height="187.344" rx="17" fill="white"/>
</g>
<rect x="74.3418" y="37.0422" width="48.2964" height="14.7287" rx="7.36435" fill="#A5EEE5"/>
<rect x="79.8223" y="42.5227" width="36.308" height="3.42528" rx="1.71264" fill="#498DAC" fill-opacity="0.5"/>
<g filter="url(#filter1_ddd_292_2468)">
<rect x="74.0635" y="60.7935" width="113.136" height="44.4029" rx="12" fill="white"/>
<rect x="75.0635" y="61.7935" width="111.136" height="42.4029" rx="11" stroke="#EEF0FD" stroke-width="2"/>
</g>
<g filter="url(#filter2_ddd_292_2468)">
<rect x="74.0635" y="110.671" width="113.136" height="44.4029" rx="12" fill="white"/>
<rect x="75.0635" y="111.671" width="111.136" height="42.4029" rx="11" stroke="#EEF0FD" stroke-width="2"/>
</g>
<g filter="url(#filter3_ddd_292_2468)">
<rect x="74.0635" y="160.548" width="113.136" height="44.4029" rx="12" fill="white"/>
<rect x="75.0635" y="161.548" width="111.136" height="42.4029" rx="11" stroke="#EEF0FD" stroke-width="2"/>
</g>
<rect x="162.371" y="37.0422" width="24.662" height="11.646" rx="5.82298" fill="#A5EEE5"/>
<rect x="78.1094" y="65.1296" width="103.443" height="14.7287" rx="7.36435" fill="#E1F4FF"/>
<rect x="78.1094" y="115.007" width="103.443" height="14.7287" rx="7.36435" fill="#E1F4FF"/>
<rect x="78.1094" y="164.884" width="103.443" height="14.7287" rx="7.36435" fill="#E1F4FF"/>
<rect x="148.879" y="85.1239" width="32.846" height="14.5982" rx="7.29911" fill="#F8E5A7"/>
<rect x="148.879" y="135.001" width="32.846" height="14.5982" rx="7.29911" fill="#F8E5A7"/>
<rect x="148.879" y="184.878" width="32.846" height="14.5982" rx="7.29911" fill="#F8E5A7"/>
<rect x="166.481" y="41.4951" width="16.4413" height="3.08275" rx="1.54138" fill="#498DAC" fill-opacity="0.5"/>
<rect x="157.395" y="90.5983" width="16.423" height="4.25781" rx="2.12891" fill="#B7BACE" style="mix-blend-mode:multiply"/>
<rect x="157.395" y="140.476" width="16.423" height="4.25781" rx="2.12891" fill="#B7BACE" style="mix-blend-mode:multiply"/>
<rect x="157.395" y="190.353" width="16.423" height="4.25781" rx="2.12891" fill="#B7BACE" style="mix-blend-mode:multiply"/>
<rect x="86.2285" y="70.5258" width="36.308" height="3.42528" rx="1.71264" fill="#507BB4" fill-opacity="0.5"/>
<rect x="86.2285" y="120.403" width="36.308" height="3.42528" rx="1.71264" fill="#507BB4" fill-opacity="0.5"/>
<rect x="86.2285" y="170.28" width="36.308" height="3.42528" rx="1.71264" fill="#507BB4" fill-opacity="0.5"/>
<path d="M318.918 132.485H176.248C173.175 132.485 170.685 130.203 170.685 127.386V75.6834C170.685 72.8664 173.175 70.5836 176.248 70.5836L318.918 70.5836C321.991 70.5836 302.637 101.534 302.637 101.534C302.637 101.534 321.991 132.485 318.918 132.485Z" fill="url(#paint0_linear_292_2468)"/>
<path d="M203.108 102.832H195.865V109.939H191.486V102.832H184.243V98.7705H191.486V91.6632H195.865V98.7705H203.108V102.832Z" fill="white"/>
<path fill-rule="evenodd" clip-rule="evenodd" d="M268.253 94.1393C269.558 94.1393 270.616 93.0308 270.616 91.6633C270.616 90.2958 269.558 89.1872 268.253 89.1872C266.947 89.1872 265.889 90.2958 265.889 91.6633C265.889 93.0308 266.947 94.1393 268.253 94.1393ZM268.253 98.1482C271.671 98.1482 274.443 95.2448 274.443 91.6633C274.443 88.0817 271.671 85.1783 268.253 85.1783C264.834 85.1783 262.062 88.0817 262.062 91.6633C262.062 95.2448 264.834 98.1482 268.253 98.1482Z" fill="white"/>
<path fill-rule="evenodd" clip-rule="evenodd" d="M289.167 86.8299L268.123 116.087L264.964 113.814L286.008 84.5574L289.167 86.8299Z" fill="white"/>
<path fill-rule="evenodd" clip-rule="evenodd" d="M286.235 111.236C287.602 111.236 288.711 110.127 288.711 108.76C288.711 107.392 287.602 106.284 286.235 106.284C284.867 106.284 283.759 107.392 283.759 108.76C283.759 110.127 284.867 111.236 286.235 111.236ZM286.235 115.245C289.816 115.245 292.72 112.341 292.72 108.76C292.72 105.178 289.816 102.275 286.235 102.275C282.653 102.275 279.75 105.178 279.75 108.76C279.75 112.341 282.653 115.245 286.235 115.245Z" fill="white"/>
<path d="M217.169 116.568C215.084 116.568 213.042 116.27 211.042 115.674C209.071 115.049 207.409 114.198 206.057 113.119L208.38 108.819C209.451 109.698 210.746 110.408 212.268 110.947C213.817 111.487 215.422 111.756 217.084 111.756C219.028 111.756 220.549 111.345 221.647 110.522C222.774 109.698 223.337 108.591 223.337 107.201C223.337 106.264 223.098 105.441 222.619 104.731C222.168 104.021 221.351 103.482 220.168 103.113C219.014 102.744 217.422 102.56 215.394 102.56H208.254L209.775 86.3374H227.14V90.9784H211.803L214.676 88.3386L213.535 100.473L210.662 97.876H216.619C219.549 97.876 221.901 98.2734 223.675 99.0682C225.478 99.8346 226.788 100.913 227.605 102.304C228.45 103.667 228.872 105.228 228.872 106.988C228.872 108.719 228.45 110.309 227.605 111.756C226.76 113.204 225.464 114.368 223.718 115.248C221.999 116.128 219.816 116.568 217.169 116.568Z" fill="white"/>
<path d="M244.378 116.568C242.04 116.568 239.927 115.972 238.04 114.779C236.181 113.587 234.716 111.856 233.646 109.585C232.575 107.286 232.04 104.504 232.04 101.24C232.04 97.9754 232.575 95.2078 233.646 92.937C234.716 90.6378 236.181 88.8921 238.04 87.6999C239.927 86.5077 242.04 85.9116 244.378 85.9116C246.744 85.9116 248.856 86.5077 250.715 87.6999C252.574 88.8921 254.039 90.6378 255.109 92.937C256.208 95.2078 256.757 97.9754 256.757 101.24C256.757 104.504 256.208 107.286 255.109 109.585C254.039 111.856 252.574 113.587 250.715 114.779C248.856 115.972 246.744 116.568 244.378 116.568ZM244.378 111.756C245.758 111.756 246.955 111.387 247.969 110.649C248.983 109.883 249.772 108.719 250.335 107.158C250.926 105.597 251.222 103.624 251.222 101.24C251.222 98.8269 250.926 96.8541 250.335 95.3213C249.772 93.7601 248.983 92.6105 247.969 91.8725C246.955 91.1061 245.758 90.7229 244.378 90.7229C243.054 90.7229 241.871 91.1061 240.829 91.8725C239.814 92.6105 239.012 93.7601 238.42 95.3213C237.857 96.8541 237.575 98.8269 237.575 101.24C237.575 103.624 237.857 105.597 238.42 107.158C239.012 108.719 239.814 109.883 240.829 110.649C241.871 111.387 243.054 111.756 244.378 111.756Z" fill="white"/>
<path d="M200.935 184.074C208.073 184.074 211.382 179.526 212.373 177.83L198.419 172.28L176 175.518V203.96H177.601L178.745 184.074H200.935Z" fill="#385981" fill-opacity="0.2" style="mix-blend-mode:multiply"/>
<path d="M267.642 188.707C277.204 186.675 282.872 186.706 302.052 175.141C316.904 166.224 314.273 154.68 314.273 154.68H198.293L267.642 188.707Z" fill="#CDFDE6"/>
<path d="M314.453 154.68C314.453 154.68 314.453 196.39 314.453 217.914C301.89 235.735 281.663 241.379 266.653 247.374C266.653 241.69 266.346 181.179 266.346 181.179C285.583 178.409 302.55 166.837 314.453 154.68Z" fill="#94EDDD"/>
<path d="M266.347 247.374L198.293 203.56V154.68L266.347 181.515V247.374Z" fill="#72D1CC"/>
<path d="M169.547 267.907L164.267 216.867V162.894L171.307 203.652L169.547 267.907Z" fill="#72D1CC"/>
<path d="M250.333 196.896L248.6 260.509C248.6 260.509 209.353 272.821 169.039 267.929C169.308 244.953 169.453 238.331 170.787 203.745C196.698 205.316 241.642 198.801 250.333 196.896Z" fill="#94EDDD"/>
<path d="M164.523 162.547L170.788 203.745C170.788 203.745 188.964 204.865 209.941 202.78C230.917 200.695 250.334 196.896 250.334 196.896L164.523 162.547Z" fill="#CDFDE6"/>
<defs>
<filter id="filter0_dd_292_2468" x="47.7227" y="21.1641" width="165.817" height="219.344" filterUnits="userSpaceOnUse" color-interpolation-filters="sRGB">
<feFlood flood-opacity="0" result="BackgroundImageFix"/>
<feColorMatrix in="SourceAlpha" type="matrix" values="0 0 0 0 0 0 0 0 0 0 0 0 0 0 0 0 0 0 127 0" result="hardAlpha"/>
<feOffset dy="8"/>
<feGaussianBlur stdDeviation="8"/>
<feColorMatrix type="matrix" values="0 0 0 0 0 0 0 0 0 0 0 0 0 0 0 0 0 0 0.08 0"/>
<feBlend mode="normal" in2="BackgroundImageFix" result="effect1_dropShadow_292_2468"/>
<feColorMatrix in="SourceAlpha" type="matrix" values="0 0 0 0 0 0 0 0 0 0 0 0 0 0 0 0 0 0 127 0" result="hardAlpha"/>
<feOffset/>
<feGaussianBlur stdDeviation="2"/>
<feColorMatrix type="matrix" values="0 0 0 0 0 0 0 0 0 0 0 0 0 0 0 0 0 0 0.04 0"/>
<feBlend mode="normal" in2="effect1_dropShadow_292_2468" result="effect2_dropShadow_292_2468"/>
<feBlend mode="normal" in="SourceGraphic" in2="effect2_dropShadow_292_2468" result="shape"/>
</filter>
<filter id="filter1_ddd_292_2468" x="54.0635" y="50.7935" width="153.136" height="84.4029" filterUnits="userSpaceOnUse" color-interpolation-filters="sRGB">
<feFlood flood-opacity="0" result="BackgroundImageFix"/>
<feColorMatrix in="SourceAlpha" type="matrix" values="0 0 0 0 0 0 0 0 0 0 0 0 0 0 0 0 0 0 127 0" result="hardAlpha"/>
<feOffset/>
<feGaussianBlur stdDeviation="0.5"/>
<feColorMatrix type="matrix" values="0 0 0 0 0 0 0 0 0 0 0 0 0 0 0 0 0 0 0.04 0"/>
<feBlend mode="normal" in2="BackgroundImageFix" result="effect1_dropShadow_292_2468"/>
<feColorMatrix in="SourceAlpha" type="matrix" values="0 0 0 0 0 0 0 0 0 0 0 0 0 0 0 0 0 0 127 0" result="hardAlpha"/>
<feOffset dy="2"/>
<feGaussianBlur stdDeviation="3"/>
<feColorMatrix type="matrix" values="0 0 0 0 0 0 0 0 0 0 0 0 0 0 0 0 0 0 0.04 0"/>
<feBlend mode="normal" in2="effect1_dropShadow_292_2468" result="effect2_dropShadow_292_2468"/>
<feColorMatrix in="SourceAlpha" type="matrix" values="0 0 0 0 0 0 0 0 0 0 0 0 0 0 0 0 0 0 127 0" result="hardAlpha"/>
<feOffset dy="10"/>
<feGaussianBlur stdDeviation="10"/>
<feColorMatrix type="matrix" values="0 0 0 0 0 0 0 0 0 0 0 0 0 0 0 0 0 0 0.04 0"/>
<feBlend mode="normal" in2="effect2_dropShadow_292_2468" result="effect3_dropShadow_292_2468"/>
<feBlend mode="normal" in="SourceGraphic" in2="effect3_dropShadow_292_2468" result="shape"/>
</filter>
<filter id="filter2_ddd_292_2468" x="54.0635" y="100.671" width="153.136" height="84.4029" filterUnits="userSpaceOnUse" color-interpolation-filters="sRGB">
<feFlood flood-opacity="0" result="BackgroundImageFix"/>
<feColorMatrix in="SourceAlpha" type="matrix" values="0 0 0 0 0 0 0 0 0 0 0 0 0 0 0 0 0 0 127 0" result="hardAlpha"/>
<feOffset/>
<feGaussianBlur stdDeviation="0.5"/>
<feColorMatrix type="matrix" values="0 0 0 0 0 0 0 0 0 0 0 0 0 0 0 0 0 0 0.04 0"/>
<feBlend mode="normal" in2="BackgroundImageFix" result="effect1_dropShadow_292_2468"/>
<feColorMatrix in="SourceAlpha" type="matrix" values="0 0 0 0 0 0 0 0 0 0 0 0 0 0 0 0 0 0 127 0" result="hardAlpha"/>
<feOffset dy="2"/>
<feGaussianBlur stdDeviation="3"/>
<feColorMatrix type="matrix" values="0 0 0 0 0 0 0 0 0 0 0 0 0 0 0 0 0 0 0.04 0"/>
<feBlend mode="normal" in2="effect1_dropShadow_292_2468" result="effect2_dropShadow_292_2468"/>
<feColorMatrix in="SourceAlpha" type="matrix" values="0 0 0 0 0 0 0 0 0 0 0 0 0 0 0 0 0 0 127 0" result="hardAlpha"/>
<feOffset dy="10"/>
<feGaussianBlur stdDeviation="10"/>
<feColorMatrix type="matrix" values="0 0 0 0 0 0 0 0 0 0 0 0 0 0 0 0 0 0 0.04 0"/>
<feBlend mode="normal" in2="effect2_dropShadow_292_2468" result="effect3_dropShadow_292_2468"/>
<feBlend mode="normal" in="SourceGraphic" in2="effect3_dropShadow_292_2468" result="shape"/>
</filter>
<filter id="filter3_ddd_292_2468" x="54.0635" y="150.548" width="153.136" height="84.4029" filterUnits="userSpaceOnUse" color-interpolation-filters="sRGB">
<feFlood flood-opacity="0" result="BackgroundImageFix"/>
<feColorMatrix in="SourceAlpha" type="matrix" values="0 0 0 0 0 0 0 0 0 0 0 0 0 0 0 0 0 0 127 0" result="hardAlpha"/>
<feOffset/>
<feGaussianBlur stdDeviation="0.5"/>
<feColorMatrix type="matrix" values="0 0 0 0 0 0 0 0 0 0 0 0 0 0 0 0 0 0 0.04 0"/>
<feBlend mode="normal" in2="BackgroundImageFix" result="effect1_dropShadow_292_2468"/>
<feColorMatrix in="SourceAlpha" type="matrix" values="0 0 0 0 0 0 0 0 0 0 0 0 0 0 0 0 0 0 127 0" result="hardAlpha"/>
<feOffset dy="2"/>
<feGaussianBlur stdDeviation="3"/>
<feColorMatrix type="matrix" values="0 0 0 0 0 0 0 0 0 0 0 0 0 0 0 0 0 0 0.04 0"/>
<feBlend mode="normal" in2="effect1_dropShadow_292_2468" result="effect2_dropShadow_292_2468"/>
<feColorMatrix in="SourceAlpha" type="matrix" values="0 0 0 0 0 0 0 0 0 0 0 0 0 0 0 0 0 0 127 0" result="hardAlpha"/>
<feOffset dy="10"/>
<feGaussianBlur stdDeviation="10"/>
<feColorMatrix type="matrix" values="0 0 0 0 0 0 0 0 0 0 0 0 0 0 0 0 0 0 0.04 0"/>
<feBlend mode="normal" in2="effect2_dropShadow_292_2468" result="effect3_dropShadow_292_2468"/>
<feBlend mode="normal" in="SourceGraphic" in2="effect3_dropShadow_292_2468" result="shape"/>
</filter>
<linearGradient id="paint0_linear_292_2468" x1="199.277" y1="132.485" x2="329.566" y2="93.2809" gradientUnits="userSpaceOnUse">
<stop stop-color="#5597EE"/>
<stop offset="1" stop-color="#4AD9D6"/>
</linearGradient>
</defs>
</svg>
